<svg width="110" height="110" viewBox="0 0 110 110" fill="none" xmlns="http://www.w3.org/2000/svg">
<g clip-path="url(#clip0_3732_7079)">
<mask id="mask0_3732_7079" style="mask-type:luminance" maskUnits="userSpaceOnUse" x="0" y="0" width="110" height="110">
<path d="M110 0H0V110H110V0Z" fill="white"/>
</mask>
<g mask="url(#mask0_3732_7079)">
<path d="M38.3395 102.705C31.3793 102.705 25.224 101.568 19.8736 99.2951C14.5706 96.975 10.4039 93.4712 7.37358 88.7837C4.34328 84.0962 2.82812 78.1303 2.82812 70.886C2.82812 64.9201 3.84612 59.8301 5.8821 55.6161C7.91809 51.3547 10.759 47.8746 14.4048 45.1757C18.0507 42.4769 22.2884 40.4172 27.1179 38.9968C31.9948 37.5763 37.2505 36.653 42.885 36.2269C48.9929 35.7534 53.8935 35.1852 57.5867 34.5223C61.3272 33.8121 64.0261 32.8415 65.6833 31.6104C67.3405 30.332 68.1691 28.6511 68.1691 26.5678V26.2837C68.1691 23.4428 67.08 21.2648 64.902 19.7496C62.724 18.2344 59.9304 17.4769 56.5213 17.4769C52.7808 17.4769 49.7268 18.3055 47.3594 19.9627C45.0393 21.5725 43.6425 24.0583 43.1691 27.4201H7.08949C7.56297 20.7913 9.66997 14.6833 13.4105 9.09623C17.1984 3.46176 22.7145 -1.03634 29.9588 -4.39809C37.2031 -7.80718 46.2467 -9.51172 57.0895 -9.51172C64.902 -9.51172 71.9096 -8.58843 78.1122 -6.74184C84.3149 -4.94259 89.5942 -2.40945 93.9503 0.857592C98.3064 4.07729 101.621 7.86517 103.894 12.2212C106.214 16.5299 107.374 21.2174 107.374 26.2837V101H70.7259V85.6587H69.8736C67.6956 89.7307 65.0441 93.0214 61.9191 95.5308C58.8414 98.0403 55.3139 99.8632 51.3367 101C47.4067 102.136 43.0744 102.705 38.3395 102.705ZM51.1236 77.9882C54.1066 77.9882 56.9001 77.3727 59.5043 76.1416C62.1558 74.9106 64.3102 73.135 65.9674 70.8149C67.6245 68.4949 68.4531 65.6776 68.4531 62.3632V53.2723C67.4115 53.6985 66.2988 54.1009 65.1151 54.4797C63.9787 54.8585 62.7477 55.2136 61.4219 55.5451C60.1435 55.8765 58.7704 56.1843 57.3026 56.4684C55.8821 56.7524 54.3906 57.0129 52.8281 57.2496C49.7978 57.7231 47.312 58.5043 45.3708 59.5934C43.4768 60.635 42.0564 61.9371 41.1094 63.4996C40.2098 65.0148 39.76 66.7193 39.76 68.6132C39.76 71.6435 40.8253 73.9636 42.956 75.5735C45.0867 77.1833 47.8092 77.9882 51.1236 77.9882Z" fill="black"/>
<path d="M82 42L41 61.5L47 87L95 78L82 42Z" fill="black"/>
<path d="M22.0281 66.6905C22.4904 63.8526 23.1968 61.3537 24.1473 59.194C25.0978 57.0342 26.484 55.3844 28.3059 54.2445C29.0056 54.3585 31.3851 55.1852 35.4443 56.7245C36.8082 52.517 38.0135 48.3035 39.06 44.0842C40.1129 39.8261 41.0637 35.0923 41.9124 29.883C42.5711 25.84 43.186 21.3308 43.7571 16.3557C45.8983 13.9908 48.4304 12.2882 51.3535 11.248C54.2766 10.2077 57.196 9.92512 60.1116 10.4001C62.8718 10.8498 65.2255 11.7122 67.1728 12.9872C69.1201 14.2622 70.518 15.8468 71.3668 17.741C69.1515 26.4391 66.2113 34.3206 62.5461 41.3857C58.701 48.8205 54.2985 56.1247 49.3386 63.2981L66.6819 67.4406C67.6642 56.2669 68.5974 47.5994 69.4815 41.4381C71.4534 40.6021 73.598 40.0535 75.9153 39.7925C78.2325 39.5315 80.5379 39.5879 82.8316 39.9616C84.9309 40.3036 86.8918 40.8824 88.7144 41.6982C90.5758 42.5202 92.1823 43.5601 93.5337 44.8179C91.3508 55.2772 89.0568 65.4389 86.6516 75.3033C84.2463 85.1676 81.593 94.4727 78.6916 103.219C76.8742 103.841 75.2342 104.232 73.7713 104.393C72.3021 104.592 70.6928 104.55 68.9434 104.265C65.9889 103.783 63.1325 102.699 60.3743 101.013L63.4357 85.5285L42.4803 76.3678C38.584 80.4421 34.1677 82.1968 29.2314 81.6321C27.7072 80.9448 26.3367 79.8036 25.12 78.2086C23.9033 76.6137 23.003 74.7909 22.4192 72.7403C21.8354 70.6897 21.7051 68.6731 22.0281 66.6905Z" fill="#C8ACFF"/>
</g>
</g>
<defs>
<clipPath id="clip0_3732_7079">
<rect width="110" height="110" fill="white"/>
</clipPath>
</defs>
</svg>
