<svg width="110" height="110" viewBox="0 0 110 110" fill="none" xmlns="http://www.w3.org/2000/svg">
<g clip-path="url(#clip0_262_20)">
<path d="M38.3409 102.705C31.3807 102.705 25.2254 101.568 19.875 99.2955C14.572 96.9754 10.4053 93.4716 7.375 88.7841C4.3447 84.0966 2.82955 78.1307 2.82955 70.8864C2.82955 64.9205 3.84754 59.8305 5.88352 55.6165C7.91951 51.3551 10.7604 47.875 14.4062 45.1761C18.0521 42.4773 22.2898 40.4176 27.1193 38.9972C31.9962 37.5767 37.2519 36.6534 42.8864 36.2273C48.9943 35.7538 53.8949 35.1856 57.5881 34.5227C61.3286 33.8125 64.0275 32.8419 65.6847 31.6108C67.3419 30.3324 68.1705 28.6515 68.1705 26.5682V26.2841C68.1705 23.4432 67.0814 21.2652 64.9034 19.75C62.7254 18.2348 59.9318 17.4773 56.5227 17.4773C52.7822 17.4773 49.7282 18.3059 47.3608 19.9631C45.0407 21.5729 43.6439 24.0587 43.1705 27.4205H7.09091C7.56439 20.7917 9.6714 14.6837 13.4119 9.09659C17.1998 3.46212 22.7159 -1.03598 29.9602 -4.39773C37.2045 -7.80682 46.2481 -9.51136 57.0909 -9.51136C64.9034 -9.51136 71.911 -8.58807 78.1136 -6.74148C84.3163 -4.94223 89.5956 -2.40909 93.9517 0.85795C98.3078 4.07765 101.622 7.86553 103.895 12.2216C106.215 16.5303 107.375 21.2178 107.375 26.2841V101H70.7273V85.6591H69.875C67.697 89.7311 65.0455 93.0218 61.9205 95.5312C58.8428 98.0407 55.3153 99.8636 51.3381 101C47.4081 102.136 43.0758 102.705 38.3409 102.705ZM51.125 77.9886C54.108 77.9886 56.9015 77.3731 59.5057 76.142C62.1572 74.911 64.3116 73.1354 65.9688 70.8153C67.6259 68.4953 68.4545 65.678 68.4545 62.3636V53.2727C67.4129 53.6989 66.3002 54.1013 65.1165 54.4801C63.9801 54.8589 62.7491 55.214 61.4233 55.5455C60.1449 55.8769 58.7718 56.1847 57.304 56.4688C55.8835 56.7528 54.392 57.0133 52.8295 57.25C49.7992 57.7235 47.3134 58.5047 45.3722 59.5938C43.4782 60.6354 42.0578 61.9375 41.1108 63.5C40.2112 65.0152 39.7614 66.7197 39.7614 68.6136C39.7614 71.6439 40.8267 73.964 42.9574 75.5739C45.0881 77.1837 47.8106 77.9886 51.125 77.9886Z" fill="black"/>
<path d="M82 42L41 61.5L47 87L95 78L82 42Z" fill="black"/>
<path d="M22.029 66.6909C22.4913 63.853 23.1977 61.3541 24.1482 59.1944C25.0987 57.0346 26.4849 55.3848 28.3068 54.2449C29.0065 54.3589 31.386 55.1856 35.4452 56.7249C36.8091 52.5174 38.0144 48.3039 39.0609 44.0846C40.1138 39.8265 41.0646 35.0927 41.9133 29.8834C42.572 25.8404 43.1869 21.3312 43.758 16.3561C45.8992 13.9912 48.4313 12.2886 51.3544 11.2484C54.2775 10.2081 57.1969 9.92551 60.1125 10.4005C62.8727 10.8502 65.2264 11.7126 67.1737 12.9876C69.121 14.2626 70.5189 15.8472 71.3677 17.7414C69.1524 26.4395 66.2122 34.321 62.547 41.3861C58.7019 48.8209 54.2994 56.1251 49.3395 63.2985L66.6828 67.441C67.6651 56.2673 68.5983 47.5998 69.4824 41.4385C71.4543 40.6025 73.5989 40.0539 75.9162 39.7929C78.2334 39.5319 80.5388 39.5883 82.8325 39.962C84.9318 40.304 86.8927 40.8828 88.7153 41.6986C90.5767 42.5206 92.1832 43.5605 93.5346 44.8183C91.3517 55.2776 89.0577 65.4393 86.6525 75.3037C84.2472 85.168 81.5939 94.4731 78.6925 103.219C76.8751 103.841 75.2351 104.232 73.7722 104.393C72.303 104.592 70.6937 104.55 68.9443 104.265C65.9898 103.783 63.1334 102.699 60.3752 101.013L63.4366 85.5289L42.4812 76.3682C38.5849 80.4425 34.1686 82.1972 29.2323 81.6325C27.7081 80.9452 26.3376 79.804 25.1209 78.209C23.9042 76.6141 23.0039 74.7913 22.4201 72.7407C21.8363 70.6901 21.706 68.6735 22.029 66.6909Z" fill="#FF0000"/>
</g>
<defs>
<clipPath id="clip0_262_20">
<rect width="110" height="110" fill="white"/>
</clipPath>
</defs>
</svg>
