<svg width="100" height="100" viewBox="0 0 100 100" fill="none" xmlns="http://www.w3.org/2000/svg">
<g clip-path="url(#clip0_262_20)">
<path d="M36.3409 101.705C29.3807 101.705 23.2254 100.568 17.875 98.2955C12.572 95.9754 8.4053 92.4716 5.375 87.7841C2.3447 83.0966 0.829546 77.1307 0.829546 69.8864C0.829546 63.9205 1.84754 58.8305 3.88352 54.6165C5.91951 50.3551 8.76042 46.875 12.4062 44.1761C16.0521 41.4773 20.2898 39.4176 25.1193 37.9972C29.9962 36.5767 35.2519 35.6534 40.8864 35.2273C46.9943 34.7538 51.8949 34.1856 55.5881 33.5227C59.3286 32.8125 62.0275 31.8419 63.6847 30.6108C65.3419 29.3324 66.1705 27.6515 66.1705 25.5682V25.2841C66.1705 22.4432 65.0814 20.2652 62.9034 18.75C60.7254 17.2348 57.9318 16.4773 54.5227 16.4773C50.7822 16.4773 47.7282 17.3059 45.3608 18.9631C43.0407 20.5729 41.6439 23.0587 41.1705 26.4205H5.09091C5.56439 19.7917 7.6714 13.6837 11.4119 8.09659C15.1998 2.46212 20.7159 -2.03598 27.9602 -5.39773C35.2045 -8.80682 44.2481 -10.5114 55.0909 -10.5114C62.9034 -10.5114 69.911 -9.58807 76.1136 -7.74148C82.3163 -5.94223 87.5956 -3.40909 91.9517 -0.14205C96.3078 3.07765 99.6222 6.86553 101.895 11.2216C104.215 15.5303 105.375 20.2178 105.375 25.2841V100H68.7273V84.6591H67.875C65.697 88.7311 63.0455 92.0218 59.9205 94.5312C56.8428 97.0407 53.3153 98.8636 49.3381 100C45.4081 101.136 41.0758 101.705 36.3409 101.705ZM49.125 76.9886C52.108 76.9886 54.9015 76.3731 57.5057 75.142C60.1572 73.911 62.3116 72.1354 63.9688 69.8153C65.6259 67.4953 66.4545 64.678 66.4545 61.3636V52.2727C65.4129 52.6989 64.3002 53.1013 63.1165 53.4801C61.9801 53.8589 60.7491 54.214 59.4233 54.5455C58.1449 54.8769 56.7718 55.1847 55.304 55.4688C53.8835 55.7528 52.392 56.0133 50.8295 56.25C47.7992 56.7235 45.3134 57.5047 43.3722 58.5938C41.4782 59.6354 40.0578 60.9375 39.1108 62.5C38.2112 64.0152 37.7614 65.7197 37.7614 67.6136C37.7614 70.6439 38.8267 72.964 40.9574 74.5739C43.0881 76.1837 45.8106 76.9886 49.125 76.9886Z" fill="black"/>
<path d="M72 42L31 61.5L37 87L85 78L72 42Z" fill="black"/>
<path d="M20.029 65.6909C20.4913 62.853 21.1977 60.3541 22.1482 58.1944C23.0987 56.0346 24.4849 54.3848 26.3068 53.2449C27.0065 53.3589 29.386 54.1856 33.4452 55.7249C34.8091 51.5174 36.0144 47.3039 37.0609 43.0846C38.1138 38.8265 39.0646 34.0927 39.9133 28.8834C40.572 24.8404 41.1869 20.3312 41.758 15.3561C43.8992 12.9912 46.4313 11.2886 49.3544 10.2484C52.2775 9.20813 55.1969 8.92551 58.1125 9.40052C60.8727 9.8502 63.2264 10.7126 65.1737 11.9876C67.121 13.2626 68.5189 14.8472 69.3677 16.7414C67.1524 25.4395 64.2122 33.321 60.547 40.3861C56.7019 47.8209 52.2994 55.1251 47.3395 62.2985L64.6828 66.441C65.6651 55.2673 66.5983 46.5998 67.4824 40.4385C69.4543 39.6025 71.5989 39.0539 73.9162 38.7929C76.2334 38.5319 78.5388 38.5883 80.8325 38.962C82.9318 39.304 84.8927 39.8828 86.7153 40.6986C88.5767 41.5206 90.1832 42.5605 91.5346 43.8183C89.3517 54.2776 87.0577 64.4393 84.6525 74.3037C82.2472 84.168 79.5939 93.4731 76.6925 102.219C74.8751 102.841 73.2351 103.232 71.7722 103.393C70.303 103.592 68.6937 103.55 66.9443 103.265C63.9898 102.783 61.1334 101.699 58.3752 100.013L61.4366 84.5289L40.4812 75.3682C36.5849 79.4425 32.1686 81.1972 27.2323 80.6325C25.7081 79.9452 24.3376 78.804 23.1209 77.209C21.9042 75.6141 21.0039 73.7913 20.4201 71.7407C19.8363 69.6901 19.706 67.6735 20.029 65.6909Z" fill="#FF0000"/>
</g>
<defs>
<clipPath id="clip0_262_20">
<rect width="100" height="100" fill="white"/>
</clipPath>
</defs>
</svg>
