<svg width="101" height="100" viewBox="0 0 101 100" fill="none" xmlns="http://www.w3.org/2000/svg">
<g clip-path="url(#clip0_262_20)">
<path d="M37.3409 101.705C30.3807 101.705 24.2254 100.568 18.875 98.2955C13.572 95.9754 9.4053 92.4716 6.375 87.7841C3.3447 83.0966 1.82955 77.1307 1.82955 69.8864C1.82955 63.9205 2.84754 58.8305 4.88352 54.6165C6.91951 50.3551 9.76042 46.875 13.4062 44.1761C17.0521 41.4773 21.2898 39.4176 26.1193 37.9972C30.9962 36.5767 36.2519 35.6534 41.8864 35.2273C47.9943 34.7538 52.8949 34.1856 56.5881 33.5227C60.3286 32.8125 63.0275 31.8419 64.6847 30.6108C66.3419 29.3324 67.1705 27.6515 67.1705 25.5682V25.2841C67.1705 22.4432 66.0814 20.2652 63.9034 18.75C61.7254 17.2348 58.9318 16.4773 55.5227 16.4773C51.7822 16.4773 48.7282 17.3059 46.3608 18.9631C44.0407 20.5729 42.6439 23.0587 42.1705 26.4205H6.09091C6.56439 19.7917 8.6714 13.6837 12.4119 8.09659C16.1998 2.46212 21.7159 -2.03598 28.9602 -5.39773C36.2045 -8.80682 45.2481 -10.5114 56.0909 -10.5114C63.9034 -10.5114 70.911 -9.58807 77.1136 -7.74148C83.3163 -5.94223 88.5956 -3.40909 92.9517 -0.14205C97.3078 3.07765 100.622 6.86553 102.895 11.2216C105.215 15.5303 106.375 20.2178 106.375 25.2841V100H69.7273V84.6591H68.875C66.697 88.7311 64.0455 92.0218 60.9205 94.5312C57.8428 97.0407 54.3153 98.8636 50.3381 100C46.4081 101.136 42.0758 101.705 37.3409 101.705ZM50.125 76.9886C53.108 76.9886 55.9015 76.3731 58.5057 75.142C61.1572 73.911 63.3116 72.1354 64.9688 69.8153C66.6259 67.4953 67.4545 64.678 67.4545 61.3636V52.2727C66.4129 52.6989 65.3002 53.1013 64.1165 53.4801C62.9801 53.8589 61.7491 54.214 60.4233 54.5455C59.1449 54.8769 57.7718 55.1847 56.304 55.4688C54.8835 55.7528 53.392 56.0133 51.8295 56.25C48.7992 56.7235 46.3134 57.5047 44.3722 58.5938C42.4782 59.6354 41.0578 60.9375 40.1108 62.5C39.2112 64.0152 38.7614 65.7197 38.7614 67.6136C38.7614 70.6439 39.8267 72.964 41.9574 74.5739C44.0881 76.1837 46.8106 76.9886 50.125 76.9886Z" fill="black"/>
<path d="M73 42L32 61.5L38 87L86 78L73 42Z" fill="black"/>
<mask id="path-3-outside-1_262_20" maskUnits="userSpaceOnUse" x="14.4387" y="3.13187" width="84.2041" height="104.033" fill="black">
<rect fill="white" x="14.4387" y="3.13187" width="84.2041" height="104.033"/>
<path d="M21.029 65.6909C21.4913 62.853 22.1977 60.3541 23.1482 58.1944C24.0987 56.0346 25.4849 54.3848 27.3068 53.2449C28.0065 53.3589 30.386 54.1856 34.4452 55.7249C35.8091 51.5174 37.0144 47.3039 38.0609 43.0846C39.1138 38.8265 40.0646 34.0927 40.9133 28.8834C41.572 24.8404 42.1869 20.3312 42.758 15.3561C44.8992 12.9912 47.4313 11.2886 50.3544 10.2484C53.2775 9.20813 56.1969 8.92551 59.1125 9.40052C61.8727 9.8502 64.2264 10.7126 66.1737 11.9876C68.121 13.2626 69.5189 14.8472 70.3677 16.7414C68.1524 25.4395 65.2122 33.321 61.547 40.3861C57.7019 47.8209 53.2994 55.1251 48.3395 62.2985L65.6828 66.441C66.6651 55.2673 67.5983 46.5998 68.4824 40.4385C70.4543 39.6025 72.5989 39.0539 74.9162 38.7929C77.2334 38.5319 79.5388 38.5883 81.8325 38.962C83.9318 39.304 85.8927 39.8828 87.7153 40.6986C89.5767 41.5206 91.1832 42.5605 92.5346 43.8183C90.3517 54.2776 88.0577 64.4393 85.6525 74.3037C83.2472 84.168 80.5939 93.4731 77.6925 102.219C75.8751 102.841 74.2351 103.232 72.7722 103.393C71.303 103.592 69.6937 103.55 67.9443 103.265C64.9898 102.783 62.1334 101.699 59.3752 100.013L62.4366 84.5289L41.4812 75.3682C37.5849 79.4425 33.1686 81.1972 28.2323 80.6325C26.7081 79.9452 25.3376 78.804 24.1209 77.209C22.9042 75.6141 22.0039 73.7913 21.4201 71.7407C20.8363 69.6901 20.706 67.6735 21.029 65.6909Z"/>
</mask>
<path d="M21.029 65.6909C21.4913 62.853 22.1977 60.3541 23.1482 58.1944C24.0987 56.0346 25.4849 54.3848 27.3068 53.2449C28.0065 53.3589 30.386 54.1856 34.4452 55.7249C35.8091 51.5174 37.0144 47.3039 38.0609 43.0846C39.1138 38.8265 40.0646 34.0927 40.9133 28.8834C41.572 24.8404 42.1869 20.3312 42.758 15.3561C44.8992 12.9912 47.4313 11.2886 50.3544 10.2484C53.2775 9.20813 56.1969 8.92551 59.1125 9.40052C61.8727 9.8502 64.2264 10.7126 66.1737 11.9876C68.121 13.2626 69.5189 14.8472 70.3677 16.7414C68.1524 25.4395 65.2122 33.321 61.547 40.3861C57.7019 47.8209 53.2994 55.1251 48.3395 62.2985L65.6828 66.441C66.6651 55.2673 67.5983 46.5998 68.4824 40.4385C70.4543 39.6025 72.5989 39.0539 74.9162 38.7929C77.2334 38.5319 79.5388 38.5883 81.8325 38.962C83.9318 39.304 85.8927 39.8828 87.7153 40.6986C89.5767 41.5206 91.1832 42.5605 92.5346 43.8183C90.3517 54.2776 88.0577 64.4393 85.6525 74.3037C83.2472 84.168 80.5939 93.4731 77.6925 102.219C75.8751 102.841 74.2351 103.232 72.7722 103.393C71.303 103.592 69.6937 103.55 67.9443 103.265C64.9898 102.783 62.1334 101.699 59.3752 100.013L62.4366 84.5289L41.4812 75.3682C37.5849 79.4425 33.1686 81.1972 28.2323 80.6325C26.7081 79.9452 25.3376 78.804 24.1209 77.209C22.9042 75.6141 22.0039 73.7913 21.4201 71.7407C20.8363 69.6901 20.706 67.6735 21.029 65.6909Z" fill="#FF0000"/>
<path d="M27.3068 53.2449L27.4676 52.2579L27.0957 52.1974L26.7764 52.3972L27.3068 53.2449ZM34.4452 55.7249L34.0907 56.6599L35.0726 57.0323L35.3965 56.0332L34.4452 55.7249ZM38.0609 43.0846L39.0315 43.3254L39.0317 43.3247L38.0609 43.0846ZM42.758 15.3561L42.0167 14.6849L41.8012 14.9229L41.7645 15.242L42.758 15.3561ZM70.3677 16.7414L71.3367 16.9882L71.4227 16.6505L71.2802 16.3325L70.3677 16.7414ZM61.547 40.3861L60.6594 39.9256L60.6588 39.9267L61.547 40.3861ZM48.3395 62.2985L47.517 61.7298L46.686 62.9317L48.1072 63.2711L48.3395 62.2985ZM65.6828 66.441L65.4505 67.4136L66.5775 67.6828L66.6789 66.5285L65.6828 66.441ZM68.4824 40.4385L68.092 39.5178L67.5727 39.738L67.4925 40.2965L68.4824 40.4385ZM87.7153 40.6986L87.3067 41.6113L87.3113 41.6133L87.7153 40.6986ZM92.5346 43.8183L93.5135 44.0226L93.6288 43.4705L93.2159 43.0863L92.5346 43.8183ZM77.6925 102.219L78.0162 103.165L78.4854 103.005L78.6416 102.534L77.6925 102.219ZM72.7722 103.393L72.663 102.399L72.6503 102.4L72.6376 102.402L72.7722 103.393ZM59.3752 100.013L58.3942 99.819L58.2591 100.503L58.8536 100.866L59.3752 100.013ZM62.4366 84.5289L63.4176 84.7228L63.5735 83.9345L62.8372 83.6126L62.4366 84.5289ZM41.4812 75.3682L41.8818 74.4519L41.2415 74.172L40.7585 74.6771L41.4812 75.3682ZM28.2323 80.6325L27.8213 81.5441L27.9636 81.6082L28.1187 81.626L28.2323 80.6325ZM21.029 65.6909L22.016 65.8517C22.4676 63.0797 23.1535 60.665 24.0635 58.5972L23.1482 58.1944L22.2329 57.7916C21.242 60.0433 20.5151 62.6263 20.042 65.5301L21.029 65.6909ZM23.1482 58.1944L24.0635 58.5972C24.9415 56.6022 26.2019 55.1158 27.8372 54.0927L27.3068 53.2449L26.7764 52.3972C24.7679 53.6538 23.2559 55.467 22.2329 57.7916L23.1482 58.1944ZM27.3068 53.2449L27.146 54.2319C27.3928 54.2721 28.0742 54.4733 29.288 54.895C30.4649 55.3039 32.0645 55.8916 34.0907 56.6599L34.4452 55.7249L34.7998 54.7898C32.7667 54.0189 31.147 53.4236 29.9444 53.0058C28.7787 52.6008 27.9205 52.3317 27.4676 52.2579L27.3068 53.2449ZM34.4452 55.7249L35.3965 56.0332C36.7675 51.8038 37.9792 47.5678 39.0315 43.3254L38.0609 43.0846L37.0903 42.8439C36.0495 47.04 34.8508 51.2309 33.494 55.4165L34.4452 55.7249ZM38.0609 43.0846L39.0317 43.3247C40.0922 39.0357 41.0481 34.275 41.9003 29.0442L40.9133 28.8834L39.9263 28.7226C39.0811 33.9105 38.1355 38.6172 37.0902 42.8446L38.0609 43.0846ZM40.9133 28.8834L41.9003 29.0442C42.562 24.9827 43.179 20.4576 43.7515 15.4701L42.758 15.3561L41.7645 15.242C41.1948 20.2049 40.582 24.698 39.9263 28.7226L40.9133 28.8834ZM42.758 15.3561L43.4993 16.0272C45.5329 13.7813 47.9268 12.1738 50.6897 11.1905L50.3544 10.2484L50.0191 9.30627C46.9359 10.4035 44.2655 12.2011 42.0167 14.6849L42.758 15.3561ZM50.3544 10.2484L50.6897 11.1905C53.4621 10.2039 56.211 9.941 58.9517 10.3875L59.1125 9.40052L59.2733 8.41353C56.1827 7.91002 53.0929 8.2124 50.0191 9.30627L50.3544 10.2484ZM59.1125 9.40052L58.9517 10.3875C61.6011 10.8191 63.8168 11.6396 65.6259 12.8242L66.1737 11.9876L66.7215 11.151C64.636 9.78546 62.1443 8.88126 59.2733 8.41353L59.1125 9.40052ZM66.1737 11.9876L65.6259 12.8242C67.4332 14.0076 68.6938 15.4513 69.4551 17.1503L70.3677 16.7414L71.2802 16.3325C70.3441 14.2432 68.8087 12.5176 66.7215 11.151L66.1737 11.9876ZM70.3677 16.7414L69.3986 16.4946C67.1999 25.1278 64.2852 32.9364 60.6594 39.9256L61.547 40.3861L62.4347 40.8466C66.1393 33.7057 69.105 25.7511 71.3367 16.9882L70.3677 16.7414ZM61.547 40.3861L60.6588 39.9267C56.834 47.3222 52.4537 54.5899 47.517 61.7298L48.3395 62.2985L49.162 62.8672C54.1451 55.6602 58.5698 48.3197 62.4353 40.8455L61.547 40.3861ZM48.3395 62.2985L48.1072 63.2711L65.4505 67.4136L65.6828 66.441L65.9151 65.4683L48.5718 61.3258L48.3395 62.2985ZM65.6828 66.441L66.6789 66.5285C67.6607 55.3612 68.5921 46.7149 69.4723 40.5805L68.4824 40.4385L67.4925 40.2965C66.6046 46.4848 65.6695 55.1735 64.6866 66.3534L65.6828 66.441ZM68.4824 40.4385L68.8727 41.3592C70.7484 40.564 72.7982 40.0378 75.0281 39.7866L74.9162 38.7929L74.8042 37.7992C72.3996 38.0701 70.1603 38.641 68.092 39.5178L68.4824 40.4385ZM74.9162 38.7929L75.0281 39.7866C77.2549 39.5358 79.4685 39.59 81.6717 39.9489L81.8325 38.962L81.9933 37.975C79.6092 37.5866 77.2119 37.528 74.8042 37.7992L74.9162 38.7929ZM81.8325 38.962L81.6717 39.9489C83.6911 40.2779 85.5682 40.8332 87.3067 41.6113L87.7153 40.6986L88.1238 39.7858C86.2172 38.9325 84.1725 38.33 81.9933 37.975L81.8325 38.962ZM87.7153 40.6986L87.3113 41.6133C89.0811 42.3949 90.5914 43.3759 91.8533 44.5503L92.5346 43.8183L93.2159 43.0863C91.7749 41.7452 90.0723 40.6463 88.1192 39.7838L87.7153 40.6986ZM92.5346 43.8183L91.5557 43.614C89.375 54.0629 87.0834 64.2138 84.6809 74.0668L85.6525 74.3037L86.624 74.5406C89.032 64.6649 91.3285 54.4922 93.5135 44.0226L92.5346 43.8183ZM85.6525 74.3037L84.6809 74.0668C82.2815 83.9074 79.6354 93.1863 76.7433 101.904L77.6925 102.219L78.6416 102.534C81.5524 93.7599 84.213 84.4286 86.624 74.5406L85.6525 74.3037ZM77.6925 102.219L77.3687 101.273C75.6011 101.878 74.0346 102.248 72.663 102.399L72.7722 103.393L72.8814 104.387C74.4356 104.216 76.1492 103.804 78.0162 103.165L77.6925 102.219ZM72.7722 103.393L72.6376 102.402C71.2835 102.586 69.7753 102.55 68.1051 102.278L67.9443 103.265L67.7835 104.252C69.6122 104.55 71.3226 104.599 72.9068 104.384L72.7722 103.393ZM67.9443 103.265L68.1051 102.278C65.2883 101.819 62.5535 100.784 59.8969 99.1598L59.3752 100.013L58.8536 100.866C61.7134 102.615 64.6913 103.748 67.7835 104.252L67.9443 103.265ZM59.3752 100.013L60.3562 100.207L63.4176 84.7228L62.4366 84.5289L61.4556 84.3349L58.3942 99.819L59.3752 100.013ZM62.4366 84.5289L62.8372 83.6126L41.8818 74.4519L41.4812 75.3682L41.0807 76.2845L62.0361 85.4451L62.4366 84.5289ZM41.4812 75.3682L40.7585 74.6771C37.0452 78.56 32.9267 80.163 28.346 79.639L28.2323 80.6325L28.1187 81.626C33.4105 82.2314 38.1247 80.3249 42.2039 76.0593L41.4812 75.3682ZM28.2323 80.6325L28.6434 79.7209C27.298 79.1142 26.052 78.0918 24.916 76.6025L24.1209 77.209L23.3258 77.8156C24.6232 79.5163 26.1182 80.7761 27.8213 81.5441L28.2323 80.6325ZM24.1209 77.209L24.916 76.6025C23.7798 75.1132 22.9336 73.4048 22.3819 71.4669L21.4201 71.7407L20.4584 72.0145C21.0742 74.1778 22.0286 76.115 23.3258 77.8156L24.1209 77.209ZM21.4201 71.7407L22.3819 71.4669C21.8358 69.5487 21.718 67.6806 22.016 65.8517L21.029 65.6909L20.042 65.5301C19.6939 67.6665 19.8369 69.8316 20.4584 72.0145L21.4201 71.7407Z" fill="white" mask="url(#path-3-outside-1_262_20)"/>
</g>
<defs>
<clipPath id="clip0_262_20">
<rect width="101" height="100" fill="white"/>
</clipPath>
</defs>
</svg>
