<svg width="343" height="115" viewBox="0 0 343 115" fill="none" xmlns="http://www.w3.org/2000/svg">
<g clip-path="url(#clip0_3735_7087)">
<path d="M80 52L39 71.5L45 97L87.5 92.5L80 52Z" fill="black"/>
<path d="M55.0898 0.488281C62.9022 0.48831 69.9098 1.41125 76.1123 3.25781C82.3149 5.05704 87.5941 7.59043 91.9502 10.8574C96.3063 14.0771 99.6206 17.8656 101.894 22.2217C104.213 26.5303 105.374 31.218 105.374 36.2842V53.7266C104.969 53.948 104.569 54.1788 104.173 54.4209C99.273 57.4086 95.5079 61.5977 92.9043 66.7988C90.2922 71.9939 89.0899 77.7955 89.0898 84.0225C89.0898 90.2091 90.262 95.9782 92.8076 101.156L92.8184 101.178L92.8291 101.198L93.0752 101.681C94.9683 105.318 97.4539 108.443 100.514 111H68.7256V95.6592H67.874C65.696 99.7311 63.0439 103.022 59.9189 105.531C56.8413 108.041 53.3139 109.864 49.3369 111C45.407 112.136 41.0746 112.705 36.3398 112.705C29.3798 112.705 23.2244 111.567 17.874 109.295C12.5712 106.975 8.4043 103.471 5.37402 98.7842C2.34372 94.0967 0.828125 88.13 0.828125 80.8857C0.828159 74.92 1.84594 69.8301 3.88184 65.6162C5.91776 61.3549 8.75865 57.8746 12.4043 55.1758C16.0502 52.477 20.2887 50.4175 25.1182 48.9971C29.995 47.5766 35.2504 46.6527 40.8848 46.2266C46.9927 45.7531 51.8937 45.1854 55.5869 44.5225C59.3273 43.8123 62.0264 42.8414 63.6836 41.6104C65.3406 40.332 66.1689 38.6506 66.1689 36.5674V36.2842C66.1689 33.4435 65.0801 31.2652 62.9023 29.75C60.7244 28.2348 57.9305 27.4766 54.5215 27.4766C50.781 27.4766 47.7268 28.3057 45.3594 29.9629C43.0394 31.5727 41.6424 34.0583 41.1689 37.4199H5.08984C5.56335 30.7914 7.66989 24.6836 11.4102 19.0967C15.1981 13.4622 20.7147 8.96331 27.959 5.60156C35.2032 2.19257 44.2472 0.488281 55.0898 0.488281ZM105.374 105.929C102.762 103.839 100.666 101.221 99.0898 98.0684C97.0898 94.0002 96.0898 89.3179 96.0898 84.0225C96.0899 79.0367 96.9884 74.6 98.7861 70.7129L99.1582 69.9434C100.732 66.7957 102.805 64.1875 105.374 62.1162V105.929ZM66.4531 63.2725C65.4116 63.6986 64.2989 64.1007 63.1152 64.4795C61.9788 64.8583 60.7477 65.2134 59.4219 65.5449C58.1435 65.8763 56.7705 66.1847 55.3027 66.4688C53.8822 66.7528 52.3906 67.0133 50.8281 67.25C47.7979 67.7235 45.3123 68.5047 43.3711 69.5938C41.4771 70.6353 40.0564 71.9375 39.1094 73.5C38.2099 75.0151 37.7598 76.7195 37.7598 78.6133C37.7598 81.6435 38.8254 83.9634 40.9561 85.5732C43.0868 87.183 45.8096 87.9883 49.124 87.9883C52.1067 87.9882 54.8999 87.3725 57.5039 86.1416C60.1554 84.9106 62.3106 83.1355 63.9678 80.8154C65.6249 78.4954 66.4531 75.6777 66.4531 72.3633V63.2725Z" fill="black"/>
<path d="M20.0281 76.6905C20.4904 73.8526 21.1968 71.3537 22.1473 69.194C23.0978 67.0342 24.484 65.3844 26.3059 64.2445C27.0056 64.3585 29.3851 65.1852 33.4443 66.7245C34.8082 62.517 36.0135 58.3035 37.06 54.0842C38.1129 49.8261 39.0637 45.0923 39.9124 39.883C40.5711 35.84 41.186 31.3308 41.7571 26.3557C43.8983 23.9908 46.4304 22.2882 49.3535 21.248C52.2766 20.2077 55.196 19.9251 58.1116 20.4001C60.8718 20.8498 63.2255 21.7122 65.1728 22.9872C67.1201 24.2622 68.518 25.8468 69.3668 27.741C67.1515 36.4391 64.2113 44.3206 60.5461 51.3857C56.701 58.8205 52.2985 66.1247 47.3386 73.2981L64.6819 77.4406C65.6642 66.2669 66.5974 57.5994 67.4815 51.4381C69.4534 50.6021 71.598 50.0535 73.9153 49.7925C76.2325 49.5315 78.5379 49.5879 80.8316 49.9616C82.9309 50.3036 84.8918 50.8824 86.7144 51.6982C88.5758 52.5202 90.1823 53.5601 91.5337 54.8179C89.3508 65.2772 87.0568 75.4389 84.6516 85.3033C82.2463 95.1676 79.593 104.473 76.6916 113.219C74.8742 113.841 73.2342 114.232 71.7713 114.393C70.3021 114.592 68.6928 114.55 66.9434 114.265C63.9889 113.783 61.1325 112.699 58.3743 111.013L61.4357 95.5285L40.4803 86.3678C36.584 90.4421 32.1677 92.1968 27.2314 91.6321C25.7072 90.9448 24.3367 89.8036 23.12 88.2086C21.9033 86.6137 21.003 84.7909 20.4192 82.7403C19.8354 80.6897 19.7051 78.6731 20.0281 76.6905Z" fill="#C8ACFF"/>
<path d="M122 110.955C116.318 110.955 111.455 109.83 107.409 107.58C103.364 105.307 100.261 102.148 98.1023 98.1023C95.9432 94.0341 94.8636 89.3182 94.8636 83.9545C94.8636 78.5909 95.9432 73.8864 98.1023 69.8409C100.261 65.7727 103.364 62.6136 107.409 60.3636C111.455 58.0909 116.318 56.9545 122 56.9545C127.136 56.9545 131.58 57.8864 135.33 59.75C139.102 61.5909 142.023 64.2045 144.091 67.5909C146.159 70.9545 147.205 74.9091 147.227 79.4545H129.773C129.523 76.7045 128.727 74.6136 127.386 73.1818C126.068 71.7273 124.364 71 122.273 71C120.636 71 119.205 71.4773 117.977 72.4318C116.75 73.3636 115.795 74.7841 115.114 76.6932C114.432 78.5795 114.091 80.9545 114.091 83.8182C114.091 86.6818 114.432 89.0682 115.114 90.9773C115.795 92.8636 116.75 94.2841 117.977 95.2386C119.205 96.1705 120.636 96.6364 122.273 96.6364C123.659 96.6364 124.886 96.3182 125.955 95.6818C127.023 95.0227 127.886 94.0682 128.545 92.8182C129.227 91.5455 129.636 90 129.773 88.1818H147.227C147.159 92.7955 146.102 96.8182 144.057 100.25C142.011 103.659 139.114 106.295 135.364 108.159C131.636 110.023 127.182 110.955 122 110.955ZM173.81 80.5455V110H154.991V40.1818H173.128V67.5909H173.673C174.855 64.25 176.821 61.6477 179.571 59.7841C182.321 57.8977 185.628 56.9545 189.491 56.9545C193.196 56.9545 196.412 57.7955 199.139 59.4773C201.889 61.1591 204.014 63.4773 205.514 66.4318C207.037 69.3864 207.787 72.7727 207.764 76.5909V110H188.946V80.5455C188.969 77.9545 188.321 75.9205 187.003 74.4432C185.707 72.9659 183.855 72.2273 181.446 72.2273C179.923 72.2273 178.582 72.5682 177.423 73.25C176.287 73.9091 175.401 74.8636 174.764 76.1136C174.151 77.3409 173.832 78.8182 173.81 80.5455ZM227.281 111.091C224.645 111.091 222.384 110.17 220.497 108.33C218.634 106.466 217.713 104.205 217.736 101.545C217.713 98.9545 218.634 96.7386 220.497 94.8977C222.384 93.0568 224.645 92.1364 227.281 92.1364C229.781 92.1364 231.986 93.0568 233.895 94.8977C235.827 96.7386 236.804 98.9545 236.827 101.545C236.804 103.318 236.338 104.932 235.429 106.386C234.543 107.818 233.384 108.966 231.952 109.83C230.52 110.67 228.963 111.091 227.281 111.091ZM247.054 110V57.6364H265.327V67.5909H265.872C266.827 63.9091 268.338 61.2159 270.406 59.5114C272.497 57.8068 274.94 56.9545 277.736 56.9545C278.554 56.9545 279.361 57.0227 280.156 57.1591C280.974 57.2727 281.759 57.4432 282.509 57.6705V73.7273C281.577 73.4091 280.429 73.1705 279.065 73.0114C277.702 72.8523 276.531 72.7727 275.554 72.7727C273.713 72.7727 272.054 73.1932 270.577 74.0341C269.122 74.8523 267.974 76.0114 267.134 77.5114C266.293 78.9886 265.872 80.7273 265.872 82.7273V110H247.054ZM322.634 87.0909V57.6364H341.452V110H323.588V100.045H323.043C321.906 103.386 319.918 106 317.077 107.886C314.236 109.75 310.861 110.682 306.952 110.682C303.293 110.682 300.088 109.841 297.338 108.159C294.611 106.477 292.486 104.159 290.963 101.205C289.463 98.25 288.702 94.8636 288.679 91.0455V57.6364H307.497V87.0909C307.52 89.6818 308.179 91.7159 309.474 93.1932C310.793 94.6705 312.634 95.4091 314.997 95.4091C316.565 95.4091 317.918 95.0795 319.054 94.4205C320.213 93.7386 321.099 92.7841 321.713 91.5568C322.349 90.3068 322.656 88.8182 322.634 87.0909Z" fill="black"/>
</g>
<defs>
<clipPath id="clip0_3735_7087">
<rect width="343" height="115" fill="white"/>
</clipPath>
</defs>
</svg>
